<?xml version="1.0" encoding="UTF-8"?><svg id="Layer_1" xmlns="http://www.w3.org/2000/svg" viewBox="0 0 993.09 205.32"><defs><style>.cls-1{fill:#fff;}.cls-2{fill:#f43f5e;}</style></defs><path class="cls-1" d="M31.91,92.15v-5.22h7.82v-47.03h-7.66v-5.13h27.09v5.13h-8.33v47.03h8.41v5.22h-27.34ZM50.84,65.73v-5.55h24.99v5.55h-24.99ZM67.41,92.15v-5.22h8.41v-47.03h-8.33v-5.13h27.09v5.13h-7.66v47.03h7.82v5.22h-27.34Z"/><path class="cls-1" d="M113.18,92.99c-4.15,0-7.45-1.04-9.89-3.11-2.44-2.07-3.66-4.77-3.66-8.08,0-2.47.55-4.51,1.64-6.14,1.09-1.63,2.61-2.97,4.54-4.04,1.94-1.06,4.16-1.91,6.69-2.52l6.98-1.77c1.63-.39,3-.85,4.12-1.39,1.12-.53,1.98-1.23,2.57-2.1.59-.87.88-1.98.88-3.32l.34,6.48h-.42c-.39,1.01-1.08,1.84-2.06,2.48-.98.65-2.37,1.25-4.16,1.81l-3.11.84c-1.51.5-2.81,1.08-3.87,1.72-1.07.65-1.88,1.43-2.44,2.36-.56.93-.84,2.03-.84,3.32,0,1.96.63,3.51,1.89,4.63,1.26,1.12,2.9,1.68,4.92,1.68,1.74,0,3.34-.39,4.8-1.18,1.46-.79,2.64-2.02,3.53-3.7.9-1.68,1.35-3.93,1.35-6.73l1.94.59c0,4.21-.63,7.66-1.89,10.35-1.26,2.69-3.07,4.67-5.43,5.93-2.36,1.26-5.16,1.89-8.41,1.89ZM109.31,65.65c-1.63,0-3.06-.5-4.29-1.51-1.23-1.01-1.85-2.5-1.85-4.46,0-2.58.84-4.68,2.52-6.31,1.68-1.63,3.88-2.86,6.6-3.7,2.72-.84,5.6-1.26,8.62-1.26,5.16,0,9.11,1.09,11.86,3.28,2.75,2.19,4.12,5.53,4.12,10.01l-9.84-1.26c0-2.58-.73-4.47-2.19-5.68-1.46-1.21-3.56-1.81-6.31-1.81-1.74,0-3.35.24-4.84.71-1.49.48-2.73,1.19-3.74,2.15-1.01.95-1.68,2.16-2.02,3.62v-3.03c2.07,0,3.74.35,5.01,1.05,1.26.7,1.89,1.87,1.89,3.49,0,1.46-.48,2.61-1.43,3.45-.95.84-2.33,1.26-4.12,1.26ZM138.34,92.99c-3.48,0-6.04-.97-7.7-2.9-1.65-1.94-2.48-4.67-2.48-8.2v-3.7h-1.18v-11.19h-.34l.42-3.2v-3.37l9.84,1.26v20.53c0,1.12.28,2.03.84,2.73.56.7,1.35,1.05,2.36,1.05,1.12,0,1.95-.35,2.48-1.05.53-.7.8-1.61.8-2.73v-17.33h5.47v16.83c0,3.48-.84,6.23-2.52,8.25s-4.35,3.03-7.99,3.03Z"/><path class="cls-1" d="M177.29,92.82c-2.97,0-5.74-.56-8.29-1.68-2.55-1.12-4.64-2.87-6.27-5.26-1.63-2.38-2.61-5.45-2.94-9.21h1.51c1.12,2.86,2.48,5.1,4.08,6.73,1.6,1.63,3.28,2.79,5.05,3.49,1.77.7,3.46,1.05,5.09,1.05,2.41,0,4.28-.52,5.6-1.56,1.32-1.04,1.98-2.48,1.98-4.33,0-1.23-.35-2.27-1.05-3.11-.7-.84-1.67-1.54-2.9-2.1-1.23-.56-2.66-1.01-4.29-1.35l-4.71-1.09c-3.14-.73-5.83-1.64-8.08-2.73-2.24-1.09-3.95-2.54-5.13-4.33-1.18-1.79-1.77-4.04-1.77-6.73,0-3.98,1.36-6.97,4.08-8.96,2.72-1.99,6.1-2.99,10.14-2.99,2.75,0,5.33.5,7.74,1.51,2.41,1.01,4.42,2.65,6.02,4.92,1.6,2.27,2.54,5.29,2.82,9.04h-1.51c-.9-2.8-2.12-4.98-3.66-6.52-1.54-1.54-3.17-2.62-4.88-3.24-1.71-.62-3.3-.93-4.75-.93-2.08,0-3.76.46-5.05,1.39-1.29.93-1.94,2.31-1.94,4.16,0,1.29.34,2.34,1.01,3.15.67.81,1.61,1.46,2.82,1.94,1.21.48,2.59.91,4.16,1.3l4.63,1.01c3.08.67,5.76,1.53,8.03,2.57,2.27,1.04,4.05,2.41,5.34,4.12,1.29,1.71,1.94,4,1.94,6.86,0,4.21-1.36,7.4-4.08,9.59-2.72,2.19-6.3,3.28-10.73,3.28ZM156.01,92.15v-15.48h3.79l1.94,3.11v12.37h-5.72ZM185.96,64.13l-1.94-3.11v-11.61h5.72v14.72h-3.79Z"/><path class="cls-1" d="M218.27,92.99c-4.49,0-7.81-1.39-9.97-4.16-2.16-2.78-3.1-6.6-2.82-11.48l.84-22.55h-10.52v-4.96h3.28c2.69,0,4.82-.34,6.39-1.01,1.57-.67,2.66-1.74,3.28-3.2.62-1.46.93-3.37.93-5.72v-2.52h6.14v41.73c0,1.91.41,3.42,1.22,4.54.81,1.12,2.06,1.68,3.74,1.68s2.9-.55,3.66-1.64c.76-1.09,1.14-2.62,1.14-4.59v-13.71h5.72v14.05c0,4.21-1.09,7.52-3.28,9.93-2.19,2.41-5.44,3.62-9.76,3.62ZM215.83,54.79v-5.38h17.5v5.38h-17.5Z"/><path class="cls-1" d="M237.7,92.15v-5.13h7.4v-32.48h-6.65v-5.13h17.16v37.61h6.48v5.13h-24.4ZM249.9,44.36c-1.85,0-3.35-.56-4.5-1.68-1.15-1.12-1.72-2.64-1.72-4.54s.57-3.42,1.72-4.54c1.15-1.12,2.65-1.68,4.5-1.68s3.34.56,4.46,1.68c1.12,1.12,1.68,2.64,1.68,4.54s-.56,3.42-1.68,4.54c-1.12,1.12-2.61,1.68-4.46,1.68Z"/><path class="cls-1" d="M264.96,92.15v-5.13h7.4v-32.48h-6.65v-5.13h15.99v13.21l1.26-.25v24.65h6.14v5.13h-24.15ZM292.64,92.15v-5.13h6.06v-24.48c0-2.41-.59-4.19-1.77-5.34-1.18-1.15-2.83-1.72-4.96-1.72-1.57,0-3.04.34-4.42,1.01-1.38.67-2.48,1.78-3.32,3.32-.84,1.54-1.26,3.58-1.26,6.1l-1.68.08c0-3.76.5-6.93,1.51-9.51,1.01-2.58,2.59-4.53,4.75-5.85,2.16-1.32,4.95-1.98,8.37-1.98,3.87,0,7.07,1.08,9.59,3.24,2.52,2.16,3.79,5.59,3.79,10.31v24.82h5.64v5.13h-22.3Z"/><path class="cls-1" d="M337.4,92.82c-2.64,0-4.98-.48-7.02-1.43-2.05-.95-3.66-2.45-4.84-4.5-1.18-2.05-1.77-4.67-1.77-7.87v-24.48h-5.64v-5.13h16.15v29.62c0,2.36.63,4.12,1.89,5.3,1.26,1.18,2.96,1.77,5.09,1.77,1.57,0,3.06-.35,4.46-1.05,1.4-.7,2.52-1.82,3.37-3.37.84-1.54,1.26-3.58,1.26-6.1l1.94-.08c0,3.81-.52,7-1.56,9.55-1.04,2.55-2.66,4.49-4.88,5.81-2.22,1.32-5.03,1.98-8.46,1.98ZM351.7,92.15v-13.8l-1.35.25v-24.06h-6.65v-5.13h17.33v37.61h6.48v5.13h-15.82Z"/><path class="cls-1" d="M370.21,92.15v-5.13h7.15v-47.12h-6.65v-5.13h17.25v52.25h6.56v5.13h-24.31Z"/><path class="cls-1" d="M420.02,93.16c-4.15,0-7.81-.87-10.98-2.61-3.17-1.74-5.65-4.28-7.45-7.61-1.8-3.34-2.69-7.42-2.69-12.24s.91-8.81,2.73-12.12c1.82-3.31,4.38-5.82,7.66-7.53,3.28-1.71,7.08-2.57,11.4-2.57l2.02,4.46c-2.92,0-5.36.69-7.32,2.06-1.96,1.38-3.45,3.28-4.46,5.72s-1.51,5.29-1.51,8.54.52,5.99,1.56,8.37c1.04,2.38,2.52,4.24,4.46,5.55,1.94,1.32,4.25,1.98,6.94,1.98,1.85,0,3.49-.29,4.92-.88s2.62-1.39,3.58-2.4c.95-1.01,1.71-2.15,2.27-3.41.56-1.26.93-2.57,1.09-3.91h4.88c-.11,2.58-.59,5.01-1.43,7.28-.84,2.27-2.05,4.25-3.62,5.93-1.57,1.68-3.53,3-5.89,3.95-2.36.95-5.08,1.43-8.16,1.43ZM432.05,67.83c-1.8,0-3.23-.46-4.29-1.39-1.07-.93-1.6-2.15-1.6-3.66,0-1.79.71-3.13,2.15-4,1.43-.87,3.29-1.25,5.59-1.14l-.08,3.11c-.28-1.4-.87-2.69-1.77-3.87-.9-1.18-2.12-2.13-3.66-2.86-1.54-.73-3.44-1.09-5.68-1.09l-2.02-4.46c3.59,0,6.73.6,9.42,1.81,2.69,1.21,4.78,2.78,6.27,4.71,1.49,1.94,2.23,4.03,2.23,6.27,0,2.02-.59,3.62-1.77,4.8-1.18,1.18-2.78,1.77-4.8,1.77Z"/><path class="cls-1" d="M461.83,92.15v-5.22h7.82v-47.03h-7.66v-5.13h13.71v52.16h8.5v5.22h-22.38ZM494.56,92.15l-18.85-42.82v-14.56h4.88l20.53,46.78h-1.77l19.86-46.78h.67v13.29l-18.76,44.09h-6.56ZM511.3,92.15v-5.22h8.58v-52.16h18.51v5.13h-7.66v47.03h7.83v5.22h-27.26Z"/><path class="cls-1" d="M556.9,92.99c-4.15,0-7.45-1.04-9.89-3.11-2.44-2.07-3.66-4.77-3.66-8.08,0-2.47.55-4.51,1.64-6.14,1.09-1.63,2.61-2.97,4.54-4.04,1.93-1.06,4.16-1.91,6.69-2.52l6.98-1.77c1.63-.39,3-.85,4.12-1.39,1.12-.53,1.98-1.23,2.57-2.1.59-.87.88-1.98.88-3.32l.34,6.48h-.42c-.39,1.01-1.08,1.84-2.06,2.48-.98.65-2.37,1.25-4.17,1.81l-3.11.84c-1.51.5-2.8,1.08-3.87,1.72-1.07.65-1.88,1.43-2.44,2.36-.56.93-.84,2.03-.84,3.32,0,1.96.63,3.51,1.89,4.63,1.26,1.12,2.9,1.68,4.92,1.68,1.74,0,3.34-.39,4.8-1.18,1.46-.79,2.64-2.02,3.53-3.7.9-1.68,1.35-3.93,1.35-6.73l1.94.59c0,4.21-.63,7.66-1.89,10.35-1.26,2.69-3.07,4.67-5.43,5.93-2.36,1.26-5.16,1.89-8.41,1.89ZM553.03,65.65c-1.63,0-3.06-.5-4.29-1.51-1.23-1.01-1.85-2.5-1.85-4.46,0-2.58.84-4.68,2.52-6.31,1.68-1.63,3.88-2.86,6.6-3.7,2.72-.84,5.59-1.26,8.62-1.26,5.16,0,9.11,1.09,11.86,3.28,2.75,2.19,4.12,5.53,4.12,10.01l-9.84-1.26c0-2.58-.73-4.47-2.19-5.68-1.46-1.21-3.56-1.81-6.31-1.81-1.74,0-3.35.24-4.84.71-1.49.48-2.73,1.19-3.74,2.15-1.01.95-1.68,2.16-2.02,3.62v-3.03c2.07,0,3.74.35,5.01,1.05,1.26.7,1.89,1.87,1.89,3.49,0,1.46-.48,2.61-1.43,3.45-.96.84-2.33,1.26-4.12,1.26ZM582.06,92.99c-3.48,0-6.04-.97-7.7-2.9-1.66-1.94-2.48-4.67-2.48-8.2v-3.7h-1.18v-11.19h-.34l.42-3.2v-3.37l9.84,1.26v20.53c0,1.12.28,2.03.84,2.73.56.7,1.35,1.05,2.36,1.05,1.12,0,1.95-.35,2.48-1.05.53-.7.8-1.61.8-2.73v-17.33h5.47v16.83c0,3.48-.84,6.23-2.52,8.25s-4.35,3.03-7.99,3.03Z"/><path class="cls-1" d="M596.11,92.15v-5.13h7.15v-47.12h-6.65v-5.13h17.25v52.25h5.38v5.13h-23.14ZM613.02,77.93l-3.45-3.95,21.62-19.44h-8.08v-5.13h21.12v5.13h-4.8l-26.42,23.39ZM624.29,92.15v-5.13h6.39l-12.7-17.08,6.31-6.31,17.84,23.39h4.46v5.13h-22.3Z"/><path class="cls-1" d="M672.75,92.99c-4.09,0-7.74-.88-10.94-2.65-3.2-1.77-5.71-4.3-7.53-7.61-1.82-3.31-2.73-7.29-2.73-11.95s.91-8.72,2.73-12.03c1.82-3.31,4.33-5.83,7.53-7.57,3.2-1.74,6.84-2.61,10.94-2.61l.25,4.88c-2.13,0-4.01.56-5.64,1.68-1.63,1.12-2.89,2.88-3.79,5.26-.9,2.38-1.35,5.54-1.35,9.47,0,4.88,1.18,8.72,3.53,11.53,2.36,2.81,5.64,4.21,9.84,4.21,2.64,0,4.81-.53,6.52-1.6,1.71-1.06,3.03-2.44,3.96-4.12.92-1.68,1.5-3.39,1.72-5.13h4.8c-.06,2.3-.5,4.54-1.35,6.73-.84,2.19-2.08,4.15-3.7,5.89-1.63,1.74-3.67,3.11-6.14,4.12-2.47,1.01-5.36,1.51-8.67,1.51ZM657.02,70.02v-4.88h25.24l10.43,3.28v1.6h-35.67ZM682.26,65.14c-.06-2.3-.44-4.33-1.14-6.1-.7-1.77-1.73-3.14-3.07-4.12-1.35-.98-3.03-1.47-5.05-1.47l-.25-4.88c4.38,0,8.04.84,10.98,2.52,2.95,1.68,5.17,4.01,6.69,6.98,1.51,2.97,2.27,6.42,2.27,10.35l-10.43-3.28Z"/><path class="cls-1" d="M716.92,92.82c-2.64,0-4.98-.48-7.03-1.43-2.05-.95-3.66-2.45-4.84-4.5-1.18-2.05-1.77-4.67-1.77-7.87v-24.48h-5.64v-5.13h16.15v29.62c0,2.36.63,4.12,1.89,5.3,1.26,1.18,2.96,1.77,5.09,1.77,1.57,0,3.06-.35,4.46-1.05,1.4-.7,2.52-1.82,3.37-3.37.84-1.54,1.26-3.58,1.26-6.1l1.93-.08c0,3.81-.52,7-1.56,9.55-1.04,2.55-2.66,4.49-4.88,5.81-2.22,1.32-5.04,1.98-8.46,1.98ZM731.22,92.15v-13.8l-1.35.25v-24.06h-6.65v-5.13h17.33v37.61h6.48v5.13h-15.82Z"/><path class="cls-1" d="M749.31,108.22v-5.13h7.15v-48.55h-6.65v-5.13h16.49v14.72l-.93,6.31,1.68,8.58v24.06h12.28v5.13h-30.04ZM781.28,92.9c-3.98,0-7.18-.91-9.59-2.73-2.41-1.82-4.16-4.39-5.26-7.7-1.09-3.31-1.64-7.18-1.64-11.61l-.59-.17c0-4.38.6-8.23,1.81-11.57,1.21-3.34,3.06-5.93,5.55-7.78,2.5-1.85,5.71-2.78,9.63-2.78,3.7,0,6.93.86,9.67,2.57,2.75,1.71,4.91,4.21,6.48,7.49,1.57,3.28,2.36,7.33,2.36,12.16s-.77,8.81-2.31,12.12c-1.54,3.31-3.7,5.81-6.48,7.49-2.78,1.68-5.99,2.52-9.63,2.52ZM777.41,86.93c2.24,0,4.16-.62,5.76-1.85,1.6-1.23,2.85-3.06,3.74-5.47.9-2.41,1.35-5.36,1.35-8.83s-.45-6.44-1.35-8.88c-.9-2.44-2.15-4.28-3.74-5.51-1.6-1.23-3.52-1.85-5.76-1.85s-4.18.62-5.81,1.85c-1.63,1.23-2.89,3.07-3.79,5.51-.9,2.44-1.35,5.4-1.35,8.88s.45,6.42,1.35,8.83c.9,2.41,2.16,4.24,3.79,5.47,1.63,1.23,3.56,1.85,5.81,1.85Z"/><path class="cls-1" d="M822.67,92.15v-5.22h6.06l21.37-52.5h9.25l21.37,52.5h6.06v5.22h-27.76v-5.22h9.76l-18.26-46.11h3.45l-18.68,46.11h9.76v5.22h-22.38ZM838.41,74.4v-5.38h27.68v5.38h-27.68Z"/><path class="cls-1" d="M889.81,92.15v-5.13h7.4v-32.48h-6.65v-5.13h16.15v14.72l1.01-.17v23.05h12.28v5.13h-30.2ZM904.87,66.15c.06-4.32.74-7.78,2.06-10.39,1.32-2.61,3.07-4.51,5.26-5.72,2.19-1.21,4.65-1.81,7.4-1.81,2.92,0,5.27.76,7.07,2.27,1.79,1.51,2.69,3.56,2.69,6.14,0,1.91-.55,3.48-1.64,4.71-1.09,1.23-2.62,1.85-4.59,1.85-1.68,0-3.04-.46-4.08-1.39-1.04-.93-1.56-2.09-1.56-3.49,0-1.74.59-3.04,1.77-3.91,1.18-.87,3-1.22,5.47-1.05l-.42,3.2c-.11-1.35-.67-2.38-1.68-3.11-1.01-.73-2.41-1.09-4.21-1.09-1.91,0-3.67.49-5.3,1.47-1.63.98-2.93,2.5-3.91,4.54-.98,2.05-1.47,4.64-1.47,7.78h-2.86Z"/><path class="cls-1" d="M954.01,92.99c-4.49,0-7.81-1.39-9.97-4.16-2.16-2.78-3.1-6.6-2.82-11.48l.84-22.55h-10.52v-4.96h3.28c2.69,0,4.82-.34,6.39-1.01,1.57-.67,2.66-1.74,3.28-3.2.62-1.46.93-3.37.93-5.72v-2.52h6.14v41.73c0,1.91.41,3.42,1.22,4.54.81,1.12,2.06,1.68,3.74,1.68s2.9-.55,3.66-1.64c.76-1.09,1.14-2.62,1.14-4.59v-13.71h5.72v14.05c0,4.21-1.09,7.52-3.28,9.93-2.19,2.41-5.44,3.62-9.76,3.62ZM951.57,54.79v-5.38h17.5v5.38h-17.5Z"/><path class="cls-1" d="M312.44,135.12c-2.66,0-3.98,2.47-3.98,7.4v.39c0,.49-.11.73-.34.73-.56,0-.98-.67-1.26-2.02-.28-1.35-.42-2.49-.42-3.42,0-1.53.35-2.9,1.04-4.09.69-1.2,1.77-1.79,3.23-1.79,2.88,0,5.65,1.68,8.3,5.05,2.24-2.62,4.65-5.26,7.21-7.94,2.56-2.67,4.55-4.68,5.97-6.03l2.13-2.08c2.32-3.48,4.23-5.22,5.72-5.22.37,0,.56.17.56.5,0,.22-.08.49-.22.79-3.29,6.47-6.3,13.76-9.03,21.88-3.44,10.32-5.16,18.23-5.16,23.73,0,1.72.21,2.97.62,3.76.15.19.22.37.22.56,0,.26-.22.39-.67.39-1.01,0-1.85-.25-2.52-.76-.67-.5-1.15-1.17-1.43-1.99-.28-.82-.48-1.56-.59-2.21-.11-.65-.17-1.32-.17-1.99,0-1.12.21-2.79.62-4.99.41-2.21.62-3.81.62-4.82,0-1.5-.33-3.26-.98-5.3-.65-2.04-1.52-3.9-2.61-5.58-1.2,1.65-2.29,3.29-3.28,4.94-.99,1.65-1.69,2.86-2.1,3.65l-.56,1.23c-1.35,2.77-2.67,5.29-3.98,7.57-1.31,2.28-2.28,3.87-2.92,4.77l-.95,1.29c-.41.49-.79.73-1.12.73-.41,0-.62-.43-.62-1.29.11-5.27,4.9-13.44,14.36-24.51-1.83-2.21-3.72-3.31-5.67-3.31ZM331.68,126.31c-4.11,3.59-7.96,7.8-11.55,12.62,1.57,2.39,2.79,5.12,3.65,8.19.11.34.21.5.28.5l.28-.5c.93-3.18,2.07-6.48,3.39-9.9,1.33-3.42,2.42-6.05,3.28-7.88l1.29-2.69c.11-.22.17-.37.17-.45s-.06-.11-.17-.11l-.62.22Z"/><path class="cls-1" d="M347.33,150.49c-.3,0-.45-.11-.45-.34,0-.11.06-.26.17-.45,2.21-3.44,3.31-5.8,3.31-7.07,0-.34-.13-.5-.39-.5-1.12,0-3.76,2.54-7.91,7.63-1.23,1.57-2.38,3.2-3.45,4.88-1.07,1.68-1.8,2.97-2.22,3.87l-.67,1.29c-.45.9-1.14,1.73-2.08,2.5s-1.91,1.15-2.92,1.15c-.52,0-.79-.13-.79-.39,0-.22.16-.69.48-1.4.32-.71.7-1.5,1.15-2.36.45-.86.9-1.7,1.35-2.52s.82-1.51,1.12-2.08l.5-.84,5.89-10.26c2.28-4.3,4.67-6.45,7.18-6.45.34,0,.5.13.5.39,0,.34-.81,1.73-2.44,4.18-1.63,2.45-2.57,4.01-2.83,4.68-.08.22-.11.36-.11.39,0,.08.04.11.11.11s.21-.09.39-.28c2.8-3.18,5.78-6,8.92-8.47.19-.19.6-.46,1.23-.81.64-.35,1.2-.53,1.68-.53.71,0,1.07.62,1.07,1.85,0,1.35-.45,2.95-1.35,4.82-.9,1.87-2.11,3.52-3.65,4.94l-.22.22c-.15.11-.31.23-.48.37-.17.13-.38.29-.65.48-.26.19-.52.35-.79.48-.26.13-.54.25-.84.36-.3.11-.58.17-.84.17Z"/><path class="cls-1" d="M363.59,153.63c1.57-1.57,3.65-3.83,6.23-6.79.11-.11.21-.17.28-.17s.11.08.11.22c0,.71-.28,1.4-.84,2.08-2.77,3.07-5.22,5.63-7.35,7.68-4.49,4.34-7.46,6.51-8.92,6.51-.52,0-.79-.34-.79-1.01,0-.79.3-1.96.9-3.53.6-1.57,1.2-2.95,1.79-4.15l.9-1.74c.86-1.53,2.28-4.15,4.26-7.85,1.98-3.7,3.9-7.2,5.75-10.49,1.85-3.29,3.6-6.26,5.24-8.92h-4.43c-.37,0-.56-.09-.56-.28s.15-.37.45-.56c.3-.19.62-.28.95-.28.82,0,2.26-.02,4.32-.06,1.83-2.88,3.4-5.16,4.71-6.84,1.16-1.46,1.96-2.19,2.41-2.19.26,0,.39.17.39.5,0,.79-.71,2.47-2.13,5.05l-1.91,3.48h5.78c.34,0,.5.09.5.28,0,.6-.54.9-1.63.9h-5.27c-8.64,16.38-13.18,24.96-13.63,25.75-1.57,2.88-2.36,4.75-2.36,5.61,0,.26.09.39.28.39.52,0,2.04-1.2,4.54-3.59Z"/><path class="cls-1" d="M391.07,139.1c-.22-.11-.34-.24-.34-.39,0-.22.21-.34.62-.34h1.68c3.89-6.28,7.07-10.88,9.54-13.8,2.58-2.99,5.14-5.22,7.68-6.7,2.54-1.48,4.51-2.22,5.89-2.22.9,0,1.35.39,1.35,1.18,0,1.72-.89,3.47-2.66,5.25-1.78,1.78-3.28,2.93-4.52,3.45-.22.08-.37.11-.45.11-.15,0-.22-.09-.22-.28,0-.11.06-.26.17-.45,2.17-3.18,3.25-5.29,3.25-6.34,0-.26-.11-.39-.34-.39-.45,0-1.2.41-2.24,1.23-2.54,1.91-6.99,8.23-13.35,18.96h4.32c.52,0,.79.08.79.22,0,.19-.14.39-.42.62-.28.22-.5.34-.65.34h-3.98c-.52,0-.79.13-.79.39,0,.11.03.43.08.95.06.52.08.94.08,1.23,0,3.48-1.06,7.66-3.17,12.54-2.11,4.88-4.85,9.56-8.22,14.05-1.94,2.58-3.74,4.71-5.38,6.39-1.65,1.68-2.89,2.79-3.73,3.34-.84.54-1.47.81-1.88.81-.52,0-.79-.36-.79-1.07,0-3.44,3.57-11.46,10.71-24.06,0-.04.35-.71,1.07-2.02.71-1.31,1.75-3.19,3.11-5.64,1.36-2.45,2.74-4.8,4.12-7.04l-1.35-.34ZM395.06,143.7c0-.52-.06-1.01-.17-1.46-5.91,10.17-10.02,17.71-12.34,22.6-2.13,4.41-3.2,6.99-3.2,7.74,0,.15.06.22.17.22.52,0,1.81-1.22,3.87-3.65,2.17-2.54,4.66-6.56,7.46-12.06,2.8-5.5,4.21-9.96,4.21-13.41Z"/><path class="cls-1" d="M423.77,142.35c.34.08.5.19.5.34,0,.22-.15.49-.45.79-.41.41-1.02.95-1.82,1.63-.8.67-1.28,1.08-1.43,1.23l-.79,1.07c-.79,2.21-1.99,4.5-3.62,6.87-1.63,2.38-3.61,4.46-5.95,6.25-2.34,1.79-4.57,2.69-6.7,2.69-2.66,0-3.98-1.63-3.98-4.88,0-2.88.93-5.99,2.8-9.34,1.87-3.35,4.29-6.21,7.26-8.58,2.97-2.37,5.9-3.56,8.78-3.56,2.09,0,3.14.82,3.14,2.47,0,.9-.45,2.11-1.35,3.65-.04.04-.06.09-.06.17s.04.11.11.11c1.38-.56,2.56-.86,3.53-.9ZM418.44,143.7c.3-1.31.45-2.32.45-3.03,0-1.57-.52-2.36-1.57-2.36-1.46,0-3.27,1.35-5.44,4.04-2.17,2.69-4.03,5.72-5.58,9.09-1.55,3.37-2.33,6.02-2.33,7.96,0,1.42.5,2.13,1.51,2.13,1.57,0,3.45-1.57,5.64-4.71s3.51-6.3,3.95-9.48c-.04-.07-.06-.19-.06-.34,0-1.08.97-2.06,2.92-2.92.3-.11.47-.24.5-.39Z"/><path class="cls-1" d="M437.07,150.49c-.3,0-.45-.11-.45-.34,0-.11.06-.26.17-.45,2.21-3.44,3.31-5.8,3.31-7.07,0-.34-.13-.5-.39-.5-1.12,0-3.76,2.54-7.91,7.63-1.23,1.57-2.38,3.2-3.45,4.88-1.07,1.68-1.8,2.97-2.22,3.87l-.67,1.29c-.45.9-1.14,1.73-2.08,2.5s-1.91,1.15-2.92,1.15c-.52,0-.79-.13-.79-.39,0-.22.16-.69.48-1.4.32-.71.7-1.5,1.15-2.36.45-.86.9-1.7,1.35-2.52s.82-1.51,1.12-2.08l.5-.84,5.89-10.26c2.28-4.3,4.67-6.45,7.18-6.45.34,0,.5.13.5.39,0,.34-.81,1.73-2.44,4.18-1.63,2.45-2.57,4.01-2.83,4.68-.08.22-.11.36-.11.39,0,.08.04.11.11.11s.21-.09.39-.28c2.8-3.18,5.78-6,8.92-8.47.19-.19.6-.46,1.23-.81.64-.35,1.2-.53,1.68-.53.71,0,1.07.62,1.07,1.85,0,1.35-.45,2.95-1.35,4.82-.9,1.87-2.11,3.52-3.65,4.94l-.22.22c-.15.11-.31.23-.48.37-.17.13-.38.29-.65.48-.26.19-.52.35-.79.48-.26.13-.54.25-.84.36-.3.11-.58.17-.84.17Z"/><path class="cls-1" d="M462.81,160.13c-1.31,2.5-3.48,3.76-6.51,3.76-.64,0-.95-.19-.95-.56l.22-.62c1.35-2.06,2.76-4.38,4.23-6.96,1.48-2.58,2.63-4.66,3.45-6.23l1.18-2.36c1.2-2.32,2.21-6.14,3.03-11.47.82-5.33,1.23-9.67,1.23-13.04l-.17-1.85c-.08-.15-.11-.32-.11-.5,0-.41.19-.75.56-1.01,1.01-.67,2.3-1.01,3.87-1.01.6,0,.9.5.9,1.51-.26,6.17-1.2,13.42-2.8,21.76.04.3.15.45.34.45.11,0,.24-.07.39-.22,6.84-9.42,12.13-15.97,15.87-19.63,3.1-2.99,6.23-4.49,9.37-4.49.49.04.73.19.73.45,0,.11-.15.33-.45.65-.3.32-.76.73-1.37,1.23-.62.5-1.21.98-1.77,1.43-.56.45-1.28,1.02-2.16,1.71-.88.69-1.56,1.22-2.05,1.6-.34.26-.78.62-1.32,1.07-.54.45-1.64,1.45-3.28,3-1.65,1.55-3.24,3.15-4.8,4.8-1.55,1.65-3.32,3.73-5.3,6.25-1.98,2.52-3.74,5.04-5.27,7.54-3.4,5.98-5.76,10.23-7.07,12.73Z"/><path class="cls-1" d="M498.88,142.35c.34.08.5.19.5.34,0,.22-.15.49-.45.79-.41.41-1.02.95-1.82,1.63s-1.28,1.08-1.43,1.23l-.79,1.07c-.79,2.21-1.99,4.5-3.62,6.87-1.63,2.38-3.61,4.46-5.95,6.25-2.34,1.79-4.57,2.69-6.7,2.69-2.66,0-3.98-1.63-3.98-4.88,0-2.88.93-5.99,2.8-9.34,1.87-3.35,4.29-6.21,7.26-8.58,2.97-2.37,5.9-3.56,8.78-3.56,2.09,0,3.14.82,3.14,2.47,0,.9-.45,2.11-1.35,3.65-.04.04-.06.09-.06.17s.04.11.11.11c1.38-.56,2.56-.86,3.53-.9ZM493.55,143.7c.3-1.31.45-2.32.45-3.03,0-1.57-.52-2.36-1.57-2.36-1.46,0-3.27,1.35-5.44,4.04-2.17,2.69-4.03,5.72-5.58,9.09-1.55,3.37-2.33,6.02-2.33,7.96,0,1.42.5,2.13,1.51,2.13,1.57,0,3.45-1.57,5.64-4.71s3.51-6.3,3.95-9.48c-.04-.07-.06-.19-.06-.34,0-1.08.97-2.06,2.92-2.92.3-.11.47-.24.5-.39Z"/><path class="cls-1" d="M510.77,152.73l1.74-2.97c0-.11-.04-.17-.11-.17s-.17.06-.28.17c-1.38,1.61-2.82,3.17-4.32,4.68s-2.63,2.63-3.42,3.34l-1.23,1.07c-2.92,2.77-4.94,4.15-6.06,4.15-.52,0-.79-.34-.79-1.01,0-.75.31-1.89.93-3.42.62-1.53,1.24-2.9,1.88-4.09l.9-1.74c3.14-5.87,5.46-9.8,6.96-11.78.75-.97,1.66-1.79,2.75-2.44,1.08-.65,1.93-.98,2.52-.98.37,0,.56.13.56.39,0,.15-.07.36-.22.62-.07.15-.84,1.39-2.3,3.73-1.46,2.34-2.64,4.35-3.53,6.03-2.47,4.52-3.7,7.12-3.7,7.8,0,.26.11.39.34.39.34,0,.92-.34,1.74-1.01,2.43-2.09,5.1-4.92,8.02-8.47,1.61-1.72,3.29-3.96,5.05-6.73,1.2-1.83,2.79-2.75,4.77-2.75.34,0,.51.15.51.45l-.45,1.07c-.52.93-1.69,2.98-3.51,6.14-1.81,3.16-2.85,4.96-3.11,5.41-1.53,2.69-2.3,4.47-2.3,5.33,0,.34.11.5.34.5.37,0,1.57-.93,3.59-2.8,1.57-1.57,3.65-3.83,6.23-6.79.11-.11.21-.17.28-.17s.11.08.11.22c0,.71-.28,1.4-.84,2.08-2.77,3.07-5.22,5.63-7.35,7.68-1.46,1.38-3.09,2.77-4.91,4.15s-3.13,2.08-3.95,2.08c-.56,0-.84-.39-.84-1.18,0-.45.34-1.42,1.01-2.92.67-1.5,1.35-2.88,2.02-4.15l1.01-1.91Z"/><path class="cls-1" d="M537.18,150.49c-.3,0-.45-.11-.45-.34,0-.11.06-.26.17-.45,2.21-3.44,3.31-5.8,3.31-7.07,0-.34-.13-.5-.39-.5-1.12,0-3.76,2.54-7.91,7.63-1.23,1.57-2.38,3.2-3.45,4.88s-1.8,2.97-2.22,3.87l-.67,1.29c-.45.9-1.14,1.73-2.08,2.5s-1.91,1.15-2.92,1.15c-.52,0-.79-.13-.79-.39,0-.22.16-.69.48-1.4.32-.71.7-1.5,1.15-2.36.45-.86.9-1.7,1.35-2.52.45-.82.82-1.51,1.12-2.08l.5-.84,5.89-10.26c2.28-4.3,4.67-6.45,7.18-6.45.34,0,.5.13.5.39,0,.34-.81,1.73-2.44,4.18-1.63,2.45-2.57,4.01-2.83,4.68-.08.22-.11.36-.11.39,0,.08.04.11.11.11s.21-.09.39-.28c2.8-3.18,5.78-6,8.92-8.47.19-.19.6-.46,1.23-.81.64-.35,1.2-.53,1.68-.53.71,0,1.07.62,1.07,1.85,0,1.35-.45,2.95-1.35,4.82-.9,1.87-2.11,3.52-3.65,4.94l-.22.22c-.15.11-.31.23-.48.37s-.38.29-.64.48c-.26.19-.52.35-.79.48-.26.13-.54.25-.84.36-.3.11-.58.17-.84.17Z"/><path class="cls-2" d="M568.37,163.61c-2.06,0-3.61-.5-4.66-1.51s-1.57-2.41-1.57-4.21l.11-1.23c0-.3-.08-.45-.22-.45l-.34.22c-.9,1.5-1.83,2.87-2.8,4.12s-1.72,2.14-2.24,2.66l-.79.73c-.52.49-.92.73-1.18.73s-.39-.22-.39-.67c0-.6.19-1.33.56-2.19.56-1.23,1.34-2.89,2.33-4.96s2.97-5.76,5.95-11.05c2.97-5.29,5.86-9.96,8.67-13.99,2.84-4.11,5.05-6.92,6.62-8.41.56-.56.99-.84,1.29-.84.19,0,.28.15.28.45,0,.08-.04.34-.11.79-.34,1.5-1.66,4.25-3.98,8.25-4.64,7.55-8,13.69-10.1,18.4-1.38,2.66-2.08,5.1-2.08,7.35,0,1.27.34,2.31,1.01,3.11.67.8,1.61,1.21,2.8,1.21,1.72,0,3.39-.69,5.02-2.08,1.63-1.38,2.98-3.05,4.07-4.99,1.08-1.94,1.96-3.93,2.64-5.95s1.01-3.72,1.01-5.1c0-3.33-1.53-5.35-4.6-6.06-.04-.15-.06-.3-.06-.45,0-.45.26-.71.79-.79,2.88,0,5.44-1.08,7.68-3.23,2.24-2.15,3.37-4.63,3.37-7.43,0-1.57-.58-2.96-1.74-4.18-1.16-1.21-3.31-1.82-6.45-1.82-3.4,0-6.15.94-8.25,2.8-2.09,1.87-3.14,4-3.14,6.39,0,.67.13,1.29.39,1.85.15.3.22.54.22.73,0,.22-.11.34-.34.34-.19,0-.36-.04-.5-.11-.26-.11-.58-.26-.95-.45-.38-.19-.87-.65-1.49-1.4-.62-.75-.93-1.57-.93-2.47,0-2.47,1.51-4.59,4.54-6.37,3.03-1.78,6.69-2.66,10.99-2.66.45,0,.96.02,1.54.06.58.04,1.52.21,2.83.5,1.31.3,2.46.7,3.45,1.21.99.5,1.88,1.3,2.66,2.38.79,1.08,1.18,2.36,1.18,3.81,0,1.53-.36,2.94-1.09,4.23-.73,1.29-1.7,2.38-2.92,3.25-1.22.88-2.49,1.6-3.81,2.16-1.33.56-2.7.99-4.12,1.29-.26.11-.39.22-.39.34,0,.08.11.17.34.28.11.08.28.17.5.28.22.11.61.41,1.15.9.54.49,1.03,1.02,1.46,1.6.43.58.81,1.38,1.15,2.38.34,1.01.5,2.08.5,3.2,0,4.3-1.6,8.22-4.8,11.75-3.2,3.53-6.89,5.3-11.08,5.3Z"/><path class="cls-2" d="M600.28,155.93c1.98-1.83,4.82-4.86,8.53-9.09.11-.11.21-.17.28-.17s.11.08.11.22c0,.71-.28,1.4-.84,2.08-2.77,3.07-5.22,5.63-7.35,7.68-1.57,1.57-3.44,3.08-5.61,4.51-2.17,1.44-3.96,2.16-5.38,2.16-1.72,0-2.58-1.2-2.58-3.59,0-3.96,1.47-8.11,4.4-12.45,2.94-4.34,6.33-7.27,10.18-8.81,1.61-.67,3.07-1.01,4.38-1.01,1.46,0,2.19.58,2.19,1.74,0,2.17-1.53,4.66-4.6,7.46-3.07,2.8-6.51,4.94-10.32,6.39-.15.04-.28.17-.39.39-.56,1.53-.84,2.9-.84,4.09,0,1.35.5,2.02,1.51,2.02,1.61,0,3.72-1.21,6.34-3.65ZM602.81,143.08c.45-.93.67-1.76.67-2.47,0-.6-.19-.9-.56-.9-.22,0-.48.07-.76.2-.28.13-.5.27-.64.42l-.28.22c-1.16,1.01-2.61,2.85-4.35,5.52-1.74,2.67-2.61,4.38-2.61,5.13,0,.15.04.22.11.22.22,0,.72-.19,1.49-.56.77-.37,1.87-1.25,3.31-2.64,1.44-1.38,2.65-3.1,3.62-5.16Z"/><path class="cls-2" d="M624.01,158.56c-3.1,2.84-5.24,4.26-6.39,4.26-.52,0-.79-.3-.79-.9,0-.75.33-1.89.98-3.42.65-1.53,1.32-2.88,1.99-4.04l1.01-1.74c.15-.26.22-.43.22-.5s-.04-.11-.11-.11c-.15,0-.43.21-.84.62-1.12,1.23-2.4,2.55-3.84,3.95-1.44,1.4-2.61,2.5-3.51,3.28l-1.29,1.12c-1.46,1.12-2.58,1.68-3.37,1.68s-1.23-.64-1.23-1.91c0-.63.18-1.61.53-2.92.36-1.31.63-2.19.81-2.64.86-2.09,1.93-4.13,3.22-6.11,1.29-1.98,2.81-3.88,4.57-5.69,1.76-1.81,3.8-3.28,6.14-4.4,2.34-1.12,4.76-1.68,7.26-1.68,2.09,0,3.14.32,3.14.95,0,.37-.47.56-1.4.56-3.44,0-6.67,1.47-9.68,4.4s-5.45,6.31-7.32,10.12c-.52,1.05-.79,1.93-.79,2.64,0,.41.13.62.39.62.45,0,1.03-.32,1.74-.95.45-.41,1.06-.95,1.82-1.63s2.01-1.96,3.73-3.87c1.72-1.91,3.08-3.68,4.09-5.33.15-.3.38-.65.7-1.07.32-.41.93-.96,1.82-1.65.9-.69,1.79-1.04,2.69-1.04.49,0,.73.13.73.39,0,.08-.06.21-.17.39-.15.3-.57,1.05-1.26,2.24-.69,1.2-1.34,2.33-1.93,3.39-.6,1.07-1.23,2.22-1.91,3.48s-1.21,2.33-1.6,3.22-.59,1.5-.59,1.79c0,.22.09.34.28.34.56,0,1.93-1.08,4.09-3.25,1.64-1.72,3.57-3.83,5.78-6.34.11-.11.21-.17.28-.17s.11.08.11.22c0,.71-.28,1.4-.84,2.08-3.67,4.08-6.77,7.27-9.31,9.59Z"/><path class="cls-2" d="M645.32,152.73l1.74-2.97c0-.11-.04-.17-.11-.17s-.17.06-.28.17c-1.38,1.61-2.82,3.17-4.32,4.68-1.5,1.51-2.64,2.63-3.42,3.34l-1.23,1.07c-2.92,2.77-4.94,4.15-6.06,4.15-.52,0-.79-.34-.79-1.01,0-.75.31-1.89.93-3.42s1.24-2.9,1.88-4.09l.9-1.74c3.14-5.87,5.46-9.8,6.96-11.78.75-.97,1.66-1.79,2.75-2.44,1.08-.65,1.93-.98,2.52-.98.37,0,.56.13.56.39,0,.15-.08.36-.22.62-.08.15-.84,1.39-2.3,3.73-1.46,2.34-2.64,4.35-3.53,6.03-2.47,4.52-3.7,7.12-3.7,7.8,0,.26.11.39.34.39.34,0,.92-.34,1.74-1.01,2.43-2.09,5.1-4.92,8.02-8.47,1.61-1.72,3.29-3.96,5.05-6.73,1.2-1.83,2.79-2.75,4.77-2.75.34,0,.5.15.5.45l-.45,1.07c-.52.93-1.69,2.98-3.51,6.14-1.81,3.16-2.85,4.96-3.11,5.41-1.53,2.69-2.3,4.47-2.3,5.33,0,.34.11.5.34.5.37,0,1.57-.93,3.59-2.8,1.57-1.57,3.65-3.83,6.23-6.79.11-.11.21-.17.28-.17s.11.08.11.22c0,.71-.28,1.4-.84,2.08-2.77,3.07-5.22,5.63-7.35,7.68-1.46,1.38-3.09,2.77-4.91,4.15-1.81,1.38-3.13,2.08-3.95,2.08-.56,0-.84-.39-.84-1.18,0-.45.34-1.42,1.01-2.92.67-1.5,1.35-2.88,2.02-4.15l1.01-1.91Z"/><path class="cls-2" d="M667.42,153.63c1.57-1.57,3.65-3.83,6.23-6.79.11-.11.21-.17.28-.17s.11.08.11.22c0,.71-.28,1.4-.84,2.08-2.77,3.07-5.22,5.63-7.35,7.68-4.49,4.34-7.46,6.51-8.92,6.51-.52,0-.79-.34-.79-1.01,0-.79.3-1.96.9-3.53.6-1.57,1.2-2.95,1.79-4.15l.9-1.74c.86-1.53,2.28-4.15,4.26-7.85,1.98-3.7,3.9-7.2,5.75-10.49,1.85-3.29,3.6-6.26,5.25-8.92h-4.43c-.37,0-.56-.09-.56-.28s.15-.37.45-.56c.3-.19.62-.28.95-.28.82,0,2.26-.02,4.32-.06,1.83-2.88,3.4-5.16,4.71-6.84,1.16-1.46,1.96-2.19,2.41-2.19.26,0,.39.17.39.5,0,.79-.71,2.47-2.13,5.05l-1.91,3.48h5.78c.34,0,.5.09.5.28,0,.6-.54.9-1.63.9h-5.27c-8.64,16.38-13.18,24.96-13.63,25.75-1.57,2.88-2.36,4.75-2.36,5.61,0,.26.09.39.28.39.52,0,2.04-1.2,4.54-3.59Z"/><path class="cls-2" d="M684.58,154.13l2.36-4.6c0-.11-.04-.17-.11-.17s-.17.06-.28.17c-1.38,1.61-2.84,3.19-4.38,4.74-1.53,1.55-2.71,2.7-3.53,3.45l-1.23,1.12c-2.8,2.66-4.79,3.98-5.95,3.98-.52,0-.79-.34-.79-1.01,0-.75.3-1.88.9-3.39.6-1.51,1.2-2.83,1.79-3.95l.9-1.74c3.14-5.87,5.46-9.8,6.96-11.78.75-.97,1.66-1.79,2.75-2.44,1.08-.65,1.93-.98,2.52-.98.37,0,.56.13.56.39,0,.15-.08.36-.22.62-.08.15-.84,1.39-2.3,3.73-1.46,2.34-2.64,4.35-3.53,6.03-2.47,4.52-3.7,7.12-3.7,7.8,0,.26.11.39.34.39.34,0,.92-.34,1.74-1.01,2.43-2.09,5.1-4.92,8.02-8.47,1.61-1.72,3.29-3.96,5.05-6.73.49-.75,1.21-1.39,2.16-1.93s1.82-.81,2.61-.81c.34,0,.5.15.5.45l-.45,1.07c-.52.93-1.69,2.98-3.51,6.14-1.81,3.16-2.83,4.95-3.06,5.36-.3.56-.98,1.77-2.05,3.62-1.07,1.85-1.82,3.17-2.27,3.95,2.36-1.91,4.3-3.55,5.83-4.94,1.64-1.72,3.57-3.83,5.78-6.34.11-.11.21-.17.28-.17s.11.08.11.22c0,.71-.28,1.4-.84,2.08-1.65,1.79-3.07,3.33-4.26,4.6-1.57,1.65-4.38,4.04-8.41,7.18l-1.46,2.69c-7.22,13.27-12.19,21.91-14.92,25.91-.26.41-.6.91-1.01,1.49-.41.58-1.08,1.36-2.02,2.36-.93.99-1.68,1.49-2.24,1.49-.9,0-1.35-1.29-1.35-3.87,0-3.81,1.37-7.96,4.09-12.45,2.95-4.82,7.52-9.78,13.69-14.86,1.23-2.24,2.88-5.37,4.94-9.37ZM667.36,178.25c-.3.45-.65,1.04-1.07,1.77-.41.73-.97,1.98-1.68,3.76-.71,1.78-1.07,3.26-1.07,4.46,0,.64.11.95.34.95.19,0,.47-.18.84-.53.38-.36.69-.72.95-1.09l.39-.56c3.7-5.8,7.72-12.71,12.06-20.75-4.86,4.26-8.45,8.26-10.77,12Z"/><rect class="cls-2" x="0" y="0" width="5.32" height="121.02" rx="2.64" ry="2.64"/><rect class="cls-2" x="0" y="0" width="151.28" height="5.32" rx="2.66" ry="2.66"/></svg>