<?xml version="1.0" encoding="UTF-8"?><svg id="Layer_1" xmlns="http://www.w3.org/2000/svg" viewBox="0 0 198.13 187.5"><defs><style>.cls-1{fill:none;stroke:#2cc2f2;stroke-linecap:round;stroke-linejoin:round;}</style></defs><path class="cls-1" d="M153.88,13.99c-2.99,2.39-6.51,4.22-10.32,4.88-5.24.91-10.49-.11-15.39,2.01-4.44,1.51-7.89,4.79-11.66,7.43-4.54,3.16-10.14,4.05-15.56,3.91-4.69.03-9.44,1.63-13.37,4.13-3.64,2.43-6.75,5.73-10.98,7.19-5.14,2.15-10.86.92-16.18,2.17-2.24.5-4.4,1.33-6.42,2.41-4.09,2.09-7.25,5.71-11.33,7.57-5.25,2.8-11.24,1.73-16.88,2.7-2.78.55-5.47,1.56-7.92,2.96-4.19,2.49-7.58,6.01-11.99,8.08"/><path class="cls-1" d="M195.23,127.39c-2.99,2.24-6.36,3.96-10.04,4.67-5.16.98-10.58-.07-15.5,2.02-4.45,1.47-7.89,4.72-11.64,7.37-4.46,3.12-9.94,4.11-15.29,3.93-5.56,0-11.16,2.03-15.6,5.43-2.88,2.27-5.72,4.7-9.23,5.96-4.01,1.7-8.38,1.43-12.64,1.62-3.89.26-7.65,1.51-10.97,3.53-3.57,2.12-6.49,5.29-10.31,7.02-5.24,2.75-11.22,1.77-16.88,2.66-2.81.52-5.52,1.54-7.98,2.98-4.16,2.5-7.53,6.16-12.05,7.97"/><path class="cls-1" d="M183.85,95.51c-3.05,2.03-6.32,3.88-9.95,4.62-5.27.98-10.58.03-15.63,2.02-4.63,1.41-8.13,4.79-11.97,7.54-4.54,3.15-10.05,4.05-15.47,3.89-5.45.05-10.87,2.05-15.2,5.36-2.86,2.18-5.64,4.66-9.07,5.9-4.81,2-10.15,1.18-15.17,1.99-5.15.78-9.73,3.49-13.63,6.85-10.93,9.42-19.2,2.36-30.46,9.19-4.15,2.43-7.45,6.17-12.01,7.9"/><path class="cls-1" d="M157.95,24.81c-3.17,2.05-6.57,3.96-10.34,4.64-5.28.94-10.81-.08-15.82,2.14-4.32,1.51-7.67,4.7-11.32,7.3-4.45,3.12-9.88,4.14-15.22,3.89-5.56.03-11.08,1.99-15.49,5.36-2.91,2.25-5.76,4.71-9.27,5.98-4.12,1.75-8.58,1.47-12.94,1.7-3.79.31-7.48,1.51-10.73,3.48-3.53,2.06-6.34,5.24-10.1,6.95-5.26,2.87-11.26,1.82-16.96,2.78-2.33.45-4.58,1.24-6.7,2.29-4.76,2.33-8.36,6.43-13.2,8.57"/><path class="cls-1" d="M190.14,113.34c-3.11,1.99-6.42,3.76-10.07,4.49-5.19,1.01-10.61,0-15.58,2.11-12.22,5.06-11.61,11.82-27.95,11.33-5.38.24-10.55,2.27-14.77,5.57-2.8,2.25-5.65,4.57-9.07,5.79-4.11,1.69-8.61,1.21-12.93,1.58-3.65.35-7.25,1.52-10.41,3.39-3.09,1.78-5.58,4.47-8.74,6.27-2.28,1.32-4.78,2.23-7.37,2.71-4.75.77-9.74-.07-14.32,1.65-6.54,1.89-10.95,7.5-16.98,10.28"/><path class="cls-1" d="M151.38,7.06c-9.62,7.57-15.57,3.33-25.44,6.61-11.48,4.59-11.87,11.82-27.09,11.41-5.68.01-11.23,2.05-15.71,5.53-2.84,2.25-5.64,4.62-9.11,5.84-4.07,1.66-8.5,1.52-12.8,1.69-3.91.21-7.7,1.51-11.01,3.57-3.43,2.03-6.25,5.17-9.85,6.85-7.47,3.82-16.56.72-23.93,5.12-4.8,2.34-8.34,6.7-13.34,8.56"/><path class="cls-1" d="M176.08,74.34c-3.08,1.99-6.37,3.85-10.02,4.57-5.19,1.01-10.78-.06-15.77,2.06-4.49,1.5-7.96,4.74-11.73,7.45-4.43,3.06-9.85,4.09-15.16,3.89-5.41.03-10.85,1.92-15.17,5.13-3.04,2.25-5.9,4.83-9.51,6.13-4.06,1.72-8.48,1.52-12.79,1.72-3.92.31-7.76,1.57-11.11,3.62-3.48,2.05-6.33,5.23-10.06,6.91-5.25,2.8-11.43,1.86-17,2.75-2.38.46-4.7,1.29-6.86,2.4-4.72,2.31-8.21,6.61-13.19,8.44"/><path class="cls-1" d="M152.49,10.76c-9.68,7.32-15.59,3.19-25.42,6.53-4.55,1.49-8.06,4.8-11.88,7.52-4.8,3.41-10.73,3.98-16.44,3.89-5.21.19-10.26,2.29-14.4,5.45-2.8,2.2-5.56,4.61-8.95,5.84-5.22,2.17-11.02.98-16.43,2.2-7.05,1.2-11.44,6.8-17.52,9.96-5.37,2.91-11.51,1.8-17.3,2.81-2.69.56-5.28,1.57-7.67,2.92-4.15,2.44-7.48,6.09-11.99,7.97"/><path class="cls-1" d="M181.07,88.57c-10.97,7.72-15.62,2.92-26.16,6.79-5.36,1.8-9.08,6.51-14.05,8.86-3.55,1.73-7.49,2.29-11.41,2.23-5.05-.07-10.1,1.28-14.39,3.99-3.68,2.28-6.72,5.66-10.83,7.19-4.52,2.04-9.56,1.57-14.36,2.04-5.02.45-9.67,2.85-13.55,5.99-12.15,10.69-19.39,3.18-31.36,10.02-4.12,2.39-7.46,6.12-11.99,7.88"/><path class="cls-1" d="M150.18,3.55c-7.37,5.27-12.03,4.99-20.49,5.37-13.3,1.63-15.71,12.67-29.88,12.61-6.75-.29-13.56,1.7-18.81,6.14-2.52,2.09-5.15,4.1-8.25,5.23-4.07,1.75-8.51,1.4-12.83,1.66-3.91.29-7.71,1.61-11.04,3.64-3.6,2.14-6.47,5.28-10.23,6.97-5.21,2.77-11.15,1.73-16.77,2.63-2.85.52-5.59,1.56-8.09,3.02-4.16,2.51-7.43,6.11-11.99,7.89"/><path class="cls-1" d="M160.54,31.83c-10.61,7.78-15.7,3.25-26.07,6.79-5.36,1.79-9.08,6.41-14.03,8.86-3.64,1.88-7.73,2.44-11.79,2.39-5.07-.08-10.15,1.29-14.43,4.05-3.67,2.39-6.78,5.65-10.96,7.18-4.98,2.24-10.46,1.26-15.71,2.14-4.86.79-9.15,3.5-12.92,6.53-10.78,9.52-19.36,2.77-30.43,9.37-4.17,2.53-7.62,5.91-11.96,8.05"/><path class="cls-1" d="M156.37,21.29c-2.88,2.1-6.09,3.79-9.59,4.53-5.12,1.01-10.69-.07-15.69,2.03-11.69,4.72-12.02,11.87-27.54,11.41-5.44.11-10.82,2.1-15.15,5.39-2.89,2.22-5.73,4.69-9.21,5.94-5.12,2.13-10.85.96-16.16,2.16-7,1.1-11.67,6.86-17.64,9.97-5.77,3.2-12.42,1.56-18.62,3.14-2.29.62-4.51,1.52-6.58,2.67-4.15,2.4-7.39,6.14-11.94,7.85"/><path class="cls-1" d="M187.55,106.04c-3.62,2.88-8.05,4.77-12.72,5.16-3.26.37-6.6-.03-9.81.7-4.18.95-8.17,2.99-11.45,5.87-3.81,3.26-8.43,5.77-13.49,6.21-5.73.31-11.72.16-16.84,3.18-4.23,2.17-7.36,5.85-11.71,7.77-4.44,2.24-9.46,1.96-14.28,2.26-3.82.33-7.56,1.59-10.82,3.6-3.37,2.01-6.21,5.07-9.79,6.72-5.32,2.93-11.4,1.95-17.17,2.83-2.39.45-4.71,1.26-6.87,2.37-4.73,2.43-8.39,6.5-13.27,8.78"/><path class="cls-1" d="M161.83,35.34c-2.98,2.09-6.24,3.85-9.83,4.61-5.3,1.07-10.92-.03-16.02,2.17-4.49,1.53-7.97,4.79-11.79,7.46-5.13,3.73-11.49,3.75-17.54,4.02-3.07.31-6.12,1.1-8.86,2.53-4.82,2.48-8.39,6.87-13.52,8.64-3.43,1.37-7.14,1.54-10.79,1.5-6.23-.05-12.4,2.68-17.11,6.74-10.58,9.68-19.84,3.09-30.76,9.58-4.16,2.41-7.49,6.05-11.97,7.92"/><path class="cls-1" d="M159.15,28.32c-10.56,7.76-15.38,3.17-25.78,6.69-4.51,1.51-7.94,4.82-11.72,7.53-3.99,2.64-8.81,3.96-13.58,3.84-6.16-.32-12.32,1.65-17.19,5.45-2.84,2.22-5.66,4.53-9.08,5.79-4.15,1.73-8.67,1.45-13.04,1.74-3.78.35-7.47,1.58-10.73,3.53-3.48,2.04-6.33,5.24-10.09,6.91-4.85,2.53-10.28,2.1-15.56,2.53-3.32.45-6.52,1.6-9.44,3.24-4.21,2.41-7.45,6.25-12.09,7.82"/><path class="cls-1" d="M155.36,17.5c-3.03,2.4-6.57,4.19-10.39,4.89-5.06.86-10.36-.17-15.22,1.9-4.52,1.51-8.07,4.73-11.84,7.5-4.98,3.74-11.24,3.89-17.19,4.03-3.36.23-6.64,1.17-9.6,2.77-4.74,2.45-8.33,6.76-13.36,8.51-4.13,1.7-8.59,1.41-12.95,1.7-3.98.35-7.86,1.74-11.24,3.85-4.13,2.67-7.77,6.53-12.76,7.78-4.41,1.55-9.26.69-13.68,1.48-2.42.43-4.78,1.24-6.95,2.42-4.63,2.48-8.28,6.47-13.1,8.53"/><path class="cls-1" d="M177.19,86.73c-2.12,1.16-4.32,2.2-6.69,2.69-6.17,1.11-12.82.02-18.56,3.13-3.51,1.59-6.31,4.28-9.44,6.46-1.91,1.3-3.98,2.3-6.2,2.92-4.57,1.36-9.48.58-14.13,1.6-3.19.63-6.23,1.96-8.93,3.77-3.5,2.31-6.55,5.41-10.54,6.88-3.67,1.51-7.7,1.59-11.61,1.64-6.84.03-12.99,3.45-18.02,7.86-4.28,3.4-9.9,5.08-15.28,5.04-4.86-.16-9.74.86-13.95,3.35-4.29,2.47-7.6,6.25-12.26,7.99"/><path class="cls-1" d="M186.16,102.53c-4.86,4.2-11.42,5.52-17.72,5.3-4.64.05-9.18,1.6-13,4.06-5.02,3.65-9.97,8.13-16.5,8.5-2.29.23-4.6.11-6.89.28-4.98.35-9.96,2.31-14.01,5.42-2.9,2.24-5.71,4.7-9.23,5.92-4.01,1.64-8.4,1.41-12.65,1.65-3.88.27-7.65,1.52-10.98,3.53-3.85,2.3-6.96,5.86-11.27,7.43-7.28,3.09-15.48.34-22.53,4.53-4.77,2.36-8.29,6.7-13.33,8.56"/><path class="cls-1" d="M191.34,116.85c-10.95,8.42-19.58,1.97-30.54,9.01-1.8,1.12-3.4,2.55-5.08,3.85-4.04,3.2-9.06,5.05-14.2,5.02-5.53-.21-11.12.84-15.84,3.83-3.38,2.01-6.11,5.04-9.73,6.75-2.55,1.22-5.33,1.93-8.13,2.22-4.87.24-9.85.04-14.39,2.2-5.4,2.33-9.23,7.28-14.77,9.21-4.71,1.98-9.78,1.4-14.72,1.92-2.95.48-5.8,1.51-8.41,2.96-4.24,2.46-7.62,6.21-12.2,8.11"/><path class="cls-1" d="M166.73,49.57c-9.59,7.54-15.89,3.25-25.68,6.67-4.35,1.5-7.67,4.74-11.38,7.3-4.53,3.18-10.1,4.17-15.54,4.02-5.48,0-11.01,2.04-15.39,5.4-2.89,2.26-5.75,4.69-9.25,5.93-5.44,2.22-11.32.95-16.99,2.37-3.12.78-6.07,2.22-8.64,4.14-14.48,12.88-19.47,3.99-33.07,11.36-4.15,2.41-7.54,6.17-12.17,7.9"/><path class="cls-1" d="M165.72,46.06c-3.17,2.07-6.56,3.99-10.34,4.64-5.22.93-10.57-.06-15.48,2-4.39,1.44-7.79,4.6-11.43,7.28-5.01,3.77-11.26,4.14-17.28,4.12-4.66.32-9.32,2.13-13.13,4.93-3.03,2.21-5.85,4.79-9.41,6.14-3.7,1.55-7.71,1.7-11.66,1.78-6.92.1-13.2,3.47-18.28,7.94-4.31,3.36-9.91,5.03-15.31,4.94-4.84-.22-9.68.93-13.89,3.36-4.17,2.41-7.53,6.14-12.07,7.96"/><path class="cls-1" d="M168.03,52.99c-4.82,4.16-11.25,5.47-17.48,5.25-4.59.07-9.21,1.56-13.06,4.03-6.95,5.13-11.23,8.9-20.46,8.82-6.06-.19-12.21,1.65-17.07,5.47-2.84,2.22-5.68,4.59-9.11,5.84-4.23,1.72-8.75,1.47-13.21,1.77-3.79.34-7.51,1.52-10.72,3.59-3.87,2.41-7.06,5.89-11.4,7.43-4.9,2.27-10.41,1.19-15.52,2.11-2.31.46-4.55,1.27-6.66,2.31-4.79,2.42-8.51,6.46-13.42,8.65"/><path class="cls-1" d="M169.33,56.51c-8.93,7.57-15.96,3.49-25.47,6.79-4.54,1.44-8.02,4.78-11.79,7.5-4.98,3.58-11.11,3.96-17.03,3.91-3.09.2-6.14,1.08-8.94,2.39-4.58,2.15-8.02,6.22-12.64,8.28-4.48,2.29-9.55,2.01-14.42,2.28-3.13.34-6.23,1.19-9.05,2.61-3.75,1.8-6.6,5.06-10.21,7.08-2.36,1.34-4.98,2.23-7.65,2.71-4.63.8-9.29-.26-13.74,1.54-6.51,1.81-10.84,7.48-16.87,10.09"/><path class="cls-1" d="M193.93,123.97c-4.59,3.1-9.84,5.28-15.46,4.97-6.27-.28-12.53,1.8-17.48,5.71-4.08,3.57-8.89,6.53-14.39,7.03-5.56.22-11.37,0-16.37,2.9-4.82,2.47-8.44,6.76-13.6,8.63-4.03,1.62-8.46,1.38-12.72,1.65-3.79.3-7.49,1.47-10.76,3.39-3.59,2.07-6.46,5.34-10.2,7.05-5.3,2.87-11.37,1.9-17.1,2.82-2.34.45-4.62,1.24-6.75,2.32-4.82,2.41-8.42,6.71-13.46,8.61"/><path class="cls-1" d="M178.39,81.27c-4.51,3.83-10.49,5.36-16.31,5.28-5.1-.11-10.18,1.27-14.52,4.16-5.06,3.78-10.04,8.1-16.66,8.5-2.27.25-4.55.13-6.82.31-4.61.36-9.25,2.01-13.08,4.86-3.11,2.29-6.01,4.99-9.71,6.3-4.07,1.68-8.5,1.49-12.81,1.71-3.73.29-7.37,1.45-10.61,3.32-3.7,2.12-6.68,5.4-10.59,7.17-4.92,2.58-10.45,2-15.8,2.5-2.79.4-5.5,1.31-8.02,2.57-4.72,2.38-8.22,6.64-13.19,8.59"/><path class="cls-1" d="M188.75,109.55c-9.73,7.9-15.48,3.38-25.47,6.79-11.32,4.54-12.14,11.92-27.13,11.39-5.61.03-11.2,2.1-15.64,5.56-2.84,2.29-5.73,4.62-9.22,5.85-5.1,2.1-10.7.82-15.96,2.14-2.7.6-5.3,1.65-7.67,3.08-3.47,2.02-6.35,5.17-10.08,6.85-5.24,2.79-11.32,1.82-16.92,2.77-2.78.56-5.48,1.56-7.94,2.96-4.13,2.45-7.63,6.02-12.08,8.08"/><path class="cls-1" d="M174.6,70.83c-2.93,2.14-6.2,3.85-9.79,4.56-5.21,1-10.62-.05-15.63,2.01-4.59,1.48-8.16,4.78-12.02,7.52-5.02,3.71-11.33,3.87-17.31,4-3.06.28-6.07,1.14-8.82,2.49-4.8,2.36-8.5,6.81-13.69,8.65-5.2,2.27-11.01.99-16.4,2.27-2.68.63-5.24,1.73-7.59,3.16-3.42,2.01-6.18,5.19-9.9,6.79-5.47,2.89-11.65,1.86-17.53,2.82-7.6,1.28-12.65,7.54-19.24,10.9"/><path class="cls-1" d="M164.24,42.55c-10.4,7.64-15.55,3.17-25.79,6.71-4.5,1.49-7.9,4.83-11.72,7.47-4.6,3.15-10.12,4-15.59,3.77-5.55.08-10.91,2.19-15.26,5.61-2.78,2.25-5.62,4.48-9.03,5.71-5.16,2.15-10.81,1.01-16.15,2.24-2.64.59-5.17,1.65-7.48,3.05-3.51,2.04-6.34,5.19-10.05,6.85-4.86,2.56-10.55,2.06-15.74,2.57-2.76.41-5.49,1.2-7.97,2.49-4.61,2.47-8.44,6.37-13.14,8.72"/><path class="cls-1" d="M173.3,67.32c-3.12,2.08-6.51,3.88-10.23,4.57-5.03.89-10.47-.06-15.37,2.04-4.55,1.48-8.06,4.78-11.89,7.49-4.41,3-9.78,4-15.04,3.85-5.47.04-10.94,1.9-15.3,5.22-2.99,2.24-5.86,4.76-9.42,6.05-5.21,2.24-10.99,1.02-16.38,2.31-2.64.6-5.2,1.62-7.51,3.05-3.49,2.08-6.38,5.21-10.07,6.88-5.25,2.8-11.23,1.8-16.88,2.7-2.9.55-5.69,1.61-8.24,3.09-4.11,2.43-7.36,5.97-11.78,7.83"/><path class="cls-1" d="M172.19,63.62c-3.25,1.97-6.51,4.12-10.23,4.77-3.35.71-6.8.22-10.17.66-4.42.57-8.65,2.42-12.18,5.04-3.85,3.09-7.88,6.16-12.87,7.04-4.15.92-8.5.32-12.76,1.27-5.78,1.04-10.23,4.9-14.8,8.3-2.94,1.98-6.41,3.26-9.92,3.67-5.64.35-11.54.08-16.64,2.98-3.73,1.85-6.55,4.98-10.2,7.04-2.24,1.27-4.7,2.15-7.24,2.63-5.56.79-11.47,0-16.72,2.59-5.4,2.16-9.17,6.97-14.56,9.28"/><path class="cls-1" d="M162.85,39.04c-8.02,5.63-11.69,4.52-20.65,5.34-4.96.69-9.67,3.16-13.53,6.44-3.96,3.41-8.86,5.75-14.13,6.06-5.98.07-12.15.45-17.3,3.85-3.77,2.3-6.83,5.76-10.99,7.33-4.57,2.09-9.64,1.59-14.51,2.04-3.61.38-7.03,1.61-10.08,3.55-4.35,2.78-8.04,6.75-13.22,8.04-4.18,1.45-8.57.72-12.87,1.34-2.51.42-4.97,1.23-7.27,2.34-4.83,2.37-8.49,6.65-13.47,8.75"/><path class="cls-1" d="M177.1,77.85c-10.16,7.9-16.37,2.94-26.41,7-4.6,1.63-7.86,5.38-12,7.86-3.99,2.38-8.66,3.28-13.26,3.17-5.08-.12-10.14,1.37-14.44,4.07-4.16,2.75-7.8,6.54-12.78,7.79-6.13,1.83-12.9.19-18.87,3.01-4.97,1.9-8.46,6.31-13.16,8.55-5.84,3.26-12.66,1.6-18.85,3.16-2.22.61-4.37,1.5-6.38,2.64-4.21,2.47-7.44,6.13-11.96,7.92"/><path class="cls-1" d="M192.45,120.46c-2.49,1.78-5.2,3.26-8.15,4.1-5.51,1.56-11.79.14-17.24,2.43-4.44,1.48-7.89,4.72-11.65,7.37-4.51,3.17-10.05,4.1-15.45,3.99-5.35.11-10.92,1.99-15.23,5.29-2.96,2.31-5.91,4.75-9.49,6.04-4.1,1.69-8.56,1.44-12.9,1.71-3.93.32-7.7,1.65-11.03,3.71-3.46,2.08-6.26,5.14-9.92,6.8-5.22,2.76-11.23,1.79-16.84,2.63-2.7.5-5.3,1.49-7.68,2.87-4.29,2.52-7.83,6.27-12.51,8.15"/><path class="cls-1" d="M184.96,99.11c-5.2,3.99-11.65,5.46-18.11,5.16-5.87.14-11.49,2.75-15.94,6.47-4.52,3.97-10.35,6.41-16.39,6.34-5.56-.23-11.09,1.15-15.82,4.13-3.74,2.47-6.97,5.84-11.33,7.27-4.77,2.03-9.95,1.13-14.98,1.93-2.91.51-5.7,1.6-8.23,3.12-3.78,2.21-6.85,5.5-10.83,7.27-5.15,2.63-11.02,1.53-16.49,2.44-2.39.47-4.72,1.29-6.87,2.42-4.69,2.39-8.24,6.59-13.21,8.52"/><path class="cls-1" d="M170.71,60.02c-9.47,7.77-15.44,3.49-25.24,6.71-10.44,3.84-12.49,11.85-25.87,11.4-4.96-.09-9.98.94-14.21,3.61-4.02,2.43-7.44,6.16-12.03,7.75-4.09,1.69-8.5,1.4-12.8,1.7-5.34.39-10.28,2.75-14.41,6.07-12.79,11.04-19.42,3.09-31.69,10.21-4.04,2.46-7.41,6.05-11.85,7.91"/><path class="cls-1" d="M182.28,91.81c-8.94,7.8-16.05,3.49-25.57,6.91-4.44,1.55-7.95,4.74-11.71,7.42-5.07,3.67-11.39,3.87-17.39,3.98-3.14.26-6.24,1.2-9.06,2.6-4.85,2.43-8.35,6.85-13.53,8.64-3.25,1.32-6.81,1.53-10.28,1.52-4.83.02-9.53,1.39-13.65,3.84-3.43,2.09-6.27,5.22-9.98,6.82-5.14,2.64-10.89,1.85-16.46,2.62-2.9.49-5.68,1.52-8.22,2.99-4.24,2.56-7.62,6.05-12.15,8.02"/><path class="cls-1" d="M150.36,152.25c-3,.22-6.01.21-9,.53-4.5.7-8.73,2.68-12.28,5.55-1.37,1.08-2.57,2.37-4.25,2.98"/><path class="cls-1" d="M79.32,177.94c-1.21.27-2.42.31-3.65.29-4.24-.04-8.61.74-12.53,2.67-3.33,1.53-5.9,4.2-8.98,6.1"/><path class="cls-1" d="M114.84,165c-2.37.5-4.86.39-7.28.54-4.63.25-9.09,2.04-12.71,4.85-1.68,1.26-3.31,2.71-5.17,3.67"/><path class="cls-1" d="M185.7,139.31c-2.72.54-5.52.12-8.26.54-4,.53-8,1.96-11.26,4.44-1.79,1.32-3.49,2.88-5.46,3.89"/><path class="cls-1" d="M148.51.5c-2.58,1.39-5.11,2.97-7.96,3.75-1.87.58-3.84.73-5.73,1.24"/><path class="cls-1" d="M6.79,51.7c-2.11,1.16-4.09,2.62-6.29,3.51"/><path class="cls-1" d="M179.78,84.79c-.8.62-1.6,1.23-2.41,1.85"/><path class="cls-1" d="M197.63,134.6c-.43.25-.86.49-1.3.74"/><path class="cls-1" d="M196.98,131.09c-2.99,2.24-6.36,3.96-10.04,4.67-5.16.98-10.58-.07-15.5,2.02-4.45,1.47-7.89,4.72-11.64,7.37-4.46,3.12-9.94,4.11-15.29,3.93-5.56,0-11.16,2.03-15.6,5.43-2.88,2.27-5.72,4.7-9.23,5.96-4.01,1.7-8.38,1.43-12.64,1.62-3.89.26-7.65,1.51-10.97,3.53-3.57,2.12-6.49,5.29-10.31,7.02-5.24,2.75-11.22,1.77-16.88,2.66-2.81.52-5.52,1.54-7.98,2.98-4.16,2.5-7.53,6.16-12.05,7.97"/><path class="cls-1" d="M21.7,44.57c2.37-.5,4.86-.39,7.28-.54,4.63-.25,9.09-2.04,12.71-4.85,1.68-1.26,3.31-2.71,5.17-3.67"/><path class="cls-1" d="M57.16,31.83c2.37-.5,4.86-.39,7.28-.54,4.63-.25,9.09-2.04,12.71-4.85,1.68-1.26,3.31-2.71,5.17-3.67"/><path class="cls-1" d="M92.96,19.07c2.37-.5,4.86-.39,7.28-.54,4.63-.25,9.09-2.04,12.71-4.85,1.68-1.26,3.31-2.71,5.17-3.67"/></svg>