<?xml version="1.0" encoding="UTF-8"?><svg id="Layer_1" xmlns="http://www.w3.org/2000/svg" viewBox="0 0 196.46 196.35"><defs><style>.cls-1{fill:none;stroke:#5154c5;stroke-linecap:round;stroke-linejoin:round;stroke-width:2px;}</style></defs><path class="cls-1" d="M195.23,93.04c-11.37,3.86-23.17,7.86-35.33,6.75-11.99-.99-23.7-6.68-35.65-7.02-13.75-.69-26.61,6.1-40.24,6.77-14.09.98-27.37-6.4-41.35-7.14-6.74-.42-13.41.82-19.91,2.53-7.22,1.92-14.5,3.7-21.77,5.37"/><path class="cls-1" d="M195.46,101.35c-11.43,3.85-23.29,7.93-35.51,6.83-11.91-.99-23.58-6.9-35.55-7.25-13.77-.69-26.6,6.27-40.24,6.9-14.13.99-27.43-6.6-41.36-7.36-6.74-.42-13.43.84-19.93,2.57-7.27,1.94-14.58,3.79-21.87,5.46"/><path class="cls-1" d="M194.77,84.97c-11.63,4.01-23.79,8.07-36.24,6.65-12.04-1.28-23.65-7.06-35.81-7.11-14.76-.35-28.51,7.7-43.29,6.89-8.53-.31-16.79-3.27-25.01-5.38-18.35-5.76-35.53,2.4-53.42,6.1"/><path class="cls-1" d="M194.77,109.65c-11.36,3.83-23.2,7.78-35.33,6.61-11.8-1.05-23.18-6.73-34.91-7.11-13.7-.72-26.53,6.11-40.12,6.75-14.16.97-27.51-6.66-41.48-7.29-13.99-.48-27.22,5.37-40.78,7.96"/><path class="cls-1" d="M193.62,76.89c-11.2,3.81-22.8,7.88-34.78,6.77-11.81-1.01-23.5-6.96-35.35-7.36-13.74-.79-26.49,6.24-40.09,6.85-13.93.91-27.09-6.69-40.75-7.47-6.62-.45-13.19.8-19.57,2.51-7.18,1.95-14.39,3.81-21.61,5.51"/><path class="cls-1" d="M193.85,118.3c-10.41,3.23-21.08,6.71-32.09,6.35-15.8-.76-31.15-10.04-47.25-6.8-11.61,1.88-22.9,6.98-34.82,6.34-8.33-.28-16.39-3.16-24.4-5.3-17.46-5.6-33.41.57-50.14,5.98"/><path class="cls-1" d="M191.2,69.17c-30.78,11.92-35.81,3.36-64.16-1.08-16.19-1.85-31.15,7.62-47.25,6.9-8.43-.25-16.62-3.06-24.74-5.16-17.48-5.47-33.85.32-50.58,5.92"/><path class="cls-1" d="M191.43,126.37c-37.33,15.16-40.72-.58-71.78-.81-13.51.73-26.23,7.58-39.88,6.88-12.22-.34-23.89-6.4-35.97-7.27-12.62-1.06-24.73,3.61-36.34,8"/><path class="cls-1" d="M188.89,61.32c-35.66,14.37-39.53-1.2-69.4-1.53-13.4.65-26.01,7.67-39.54,6.92-8.33-.3-16.35-3.26-24.35-5.45-17.42-5.72-33.49.66-50.22,5.95"/><path class="cls-1" d="M189,135.49c-35.5,15.32-39.38-1.95-68.89-2.34-13.58.68-26.08,8.62-39.81,7.94-13.09-.38-25.65-8.31-38.66-8.59-10.42-.33-20.31,3.58-29.8,7.49"/><path class="cls-1" d="M183.47,145.41c-31.69,12.43-40.09-7.16-67.23-3.87-13.01,2.07-25.5,9.13-38.94,7.5-8.65-.85-17.15-4.63-25.71-6.84-12.66-3.74-25.55.04-37.2,5.29"/><path class="cls-1" d="M181.85,47.94c-32.54,9.3-40.41-9.04-67.04-5.01-12.26,2.28-24.11,8.69-36.83,7.45-29.42-4.71-31.83-15.43-64.53-1.17"/><path class="cls-1" d="M177.01,156.02c-27.89,5.09-34.89-7.8-57.48-7-14.12,1.04-27.06,9.75-41.44,8.55-25.85-3.4-30.28-14.14-59.79-3.74"/><path class="cls-1" d="M177.01,41.14c-27.68,5.28-37.71-9.87-61.18-6.39-12.32,2.07-24.04,8.59-36.78,7.55-25.42-3.2-30.49-13.75-59.13-3.48"/><path class="cls-1" d="M168.94,166.05c-8.48-.51-16.78-1.98-24.96-4.34-8.1-2.3-16.42-4.5-24.9-3.7-16.78,1.8-31.38,10.84-48.92,6.31-18.79-4.57-26.38-8.33-46.55-4.15"/><path class="cls-1" d="M172.4,34.33c-9.24.05-18.28-1.03-27.16-3.53-7.49-1.99-15.04-4.27-22.86-4.13-15.68.14-30.26,9.34-46,7.35-10.19-.96-19.85-5.21-29.99-6.42-5.5-.69-11.08-.45-16.67-.08"/><path class="cls-1" d="M8.73,58.79c11.05-4.38,22.58-9.05,34.67-8.09,12.34.88,24.26,7.61,36.77,7.82,13.85.57,26.65-6.93,40.4-7.46,27.47.35,32.91,15.26,65.21,3.46"/><path class="cls-1" d="M159.94,174.01c-13.93-2.78-27.58-9.3-42.03-7.66-9.79,1.06-19.28,5.38-29.01,6.92-5.52.93-11.16.84-16.67-.17-8.61-1.49-16.95-4.88-25.62-5.95-5.69-.74-11.45-.4-17.24.05"/><path class="cls-1" d="M163.63,26.14c-7.39-.98-14.73-2.37-21.94-4.38-7.55-2.08-15.35-3.65-23.21-2.89-10.33.83-20.42,5.2-30.69,6.52-15.79,2.31-30.79-4.92-46.19-7.09"/><path class="cls-1" d="M150.48,180.58c-43.09-16.5-48.22,7.64-82.55-.09-10.28-2.66-20.51-5.6-31.17-6.25"/><path class="cls-1" d="M152.79,17.38c-28.78-11.86-33.37-8.55-61.45-.28-13.17,3.5-26.52-.66-38.67-5.83"/><path class="cls-1" d="M141.72,185.89c-30.51-9.35-37.74,5.77-63.36,5.17-9.91-.7-19.26-4.47-28.45-8.05"/><path class="cls-1" d="M116.8,2.15c-20.96,5.35-31.6,10.89-53.75,4.84"/><path class="cls-1" d="M128.8,190.62c-10.19-.42-20.17,1.88-29.87,4.73"/><path class="cls-1" d="M94.19,1c-5.15.31-10.3.62-15.46.92"/></svg>